<?xml version="1.0" encoding="UTF-8" standalone="no"?>
<!-- Created with Inkscape (http://www.inkscape.org/) -->

<svg
   width="16.902193mm"
   height="13.734322mm"
   viewBox="0 0 16.902193 13.734322"
   version="1.1"
   id="svg619"
   xmlns="http://www.w3.org/2000/svg"
   xmlns:svg="http://www.w3.org/2000/svg">
  <defs
     id="defs616" />
  <g
     id="layer1"
     transform="translate(-19.242983,-72.642691)">
    <path
       fill="#e1251b"
       d="m 32.138491,79.509441 c 0,2.446879 -1.985048,4.430938 -4.431735,4.430938 -2.447482,0 -4.430745,-1.984032 -4.430745,-4.430938 0,-2.446493 1.983235,-4.430114 4.430745,-4.430114 2.446687,0 4.431735,1.983648 4.431735,4.430114 m -4.431735,-6.866746 c -3.79317,0 -6.867762,3.074399 -6.867762,6.866746 0,3.792786 3.074592,6.86757 6.867762,6.86757 3.792375,0 6.866747,-3.074784 6.866747,-6.86757 2.7e-5,-3.792347 -3.074372,-6.866746 -6.866747,-6.866746"
       id="path2"
       style="stroke-width:0.0274686" />
    <path
       id="rect4"
       style="fill:#e1251b;stroke-width:0.0274686"
       d="m 19.242984,78.123154 h 16.902192 v 2.777821 H 19.242984 Z" />
  </g>
</svg>
